# xmcd
#
# Track frame offsets:
#	150
#	11137
#	27375
#	46050
#	58250
#	76075
#	87487
#	96037
#	106300
#	121312
#	141725
#	152675
#
# Disc length: 2237 seconds
#
# Revision: 0
# Processed by: cddbd v1.5.2PL0 Copyright (c) Steve Scherf et al.
# Submitted via: EasyCDDAExtractor 11.1.0.1
#
DISCID=9b08bb0c
DTITLE=brian williams and the cornerstone - i´ll fly away
DYEAR=1900
DGENRE=
TTITLE0=where could i go
TTITLE1=it comes from you
TTITLE2=ilojuhla
TTITLE3=heaven and earth
TTITLE4=jesaja 53
TTITLE5=viimeinen juna
TTITLE6=there will be no detours
TTITLE7=lay your burnens
TTITLE8=taivaanrannan maalari
TTITLE9=uudelleen
TTITLE10=nobody´s there
TTITLE11=i´ll fly away
EXTD=
EXTT0=
EXTT1=
EXTT2=
EXTT3=
EXTT4=
EXTT5=
EXTT6=
EXTT7=
EXTT8=
EXTT9=
EXTT10=
EXTT11=
PLAYORDER=
